<?xml version="1.0" encoding="iso-8859-1"?>
<!-- Uploaded to: SVG Repo, www.svgrepo.com, Generator: SVG Repo Mixer Tools -->
<svg fill="#000000" height="800px" width="800px" version="1.1" id="Layer_1" xmlns="http://www.w3.org/2000/svg" xmlns:xlink="http://www.w3.org/1999/xlink" 
	 viewBox="0 0 512 512" xml:space="preserve">
<g>
	<g>
		<path d="M450.626,460.026h-9.4V51.974h9.4c14.329,0,25.987-11.658,25.987-25.987C476.613,11.658,464.956,0,450.626,0H61.374
			C47.044,0,35.387,11.658,35.387,25.987c0,14.329,11.658,25.987,25.987,25.987h9.4v133.253c0,4.581,3.712,8.294,8.294,8.294
			s8.294-3.712,8.294-8.294v-27.093h89.019c4.581,0,8.294-3.712,8.294-8.294c0-4.581-3.712-8.294-8.294-8.294H87.361V51.974h337.279
			v89.572H335.62c-4.581,0-8.294,3.712-8.294,8.294c0,4.581,3.712,8.294,8.294,8.294h89.019v195.732h-80.173
			c-4.581,0-8.294,3.712-8.294,8.294c0,4.581,3.712,8.294,8.294,8.294h80.173v89.572H87.361v-89.572h89.019
			c4.581,0,8.294-3.712,8.294-8.294c0-4.581-3.712-8.294-8.294-8.294H87.361v-133.25c0-4.581-3.712-8.294-8.294-8.294
			s-8.294,3.712-8.294,8.294v239.41h-9.4c-14.329,0-25.987,11.658-25.987,25.987c0,14.329,11.658,25.987,25.987,25.987h389.253
			c14.329,0,25.987-11.658,25.987-25.987C476.613,471.684,464.956,460.026,450.626,460.026z M61.374,35.387
			c-5.183,0-9.4-4.217-9.4-9.4c0-5.183,4.217-9.4,9.4-9.4h389.253c5.183,0,9.4,4.217,9.4,9.4c0,5.183-4.216,9.4-9.4,9.4H61.374z
			 M450.626,495.413H61.374c-5.183,0-9.4-4.217-9.4-9.4s4.217-9.4,9.4-9.4h389.253c5.183,0,9.4,4.216,9.4,9.4
			S455.809,495.413,450.626,495.413z"/>
	</g>
</g>
<g>
	<g>
		<path d="M302.713,190.68c-19.898-29.881-39.464-53.92-40.288-54.929c-3.266-4.005-9.585-4.005-12.851,0
			c-0.824,1.008-20.389,25.048-40.288,54.929c-27.338,41.053-41.2,71.959-41.2,91.86c0,48.476,39.437,87.914,87.914,87.914
			s87.914-39.437,87.914-87.914C343.914,262.638,330.052,231.732,302.713,190.68z M256,353.866
			c-39.329,0-71.326-31.997-71.326-71.326c0-30.678,46.713-96.76,71.327-128.244c24.615,31.476,71.325,97.545,71.325,128.244
			C327.326,321.869,295.329,353.866,256,353.866z"/>
	</g>
</g>
<g>
	<g>
		<path d="M297.564,316.536c-3.055-3.409-8.299-3.699-11.712-0.642c-8.226,7.373-18.828,11.432-29.852,11.432
			c-4.581,0-8.294,3.712-8.294,8.294s3.712,8.294,8.294,8.294c15.116,0,29.648-5.563,40.921-15.665
			C300.333,325.191,300.62,319.947,297.564,316.536z"/>
	</g>
</g>
<g>
	<g>
		<path d="M280.85,205.731c-2.536-3.813-7.682-4.85-11.498-2.313c-3.814,2.536-4.85,7.684-2.313,11.498
			c33.364,50.176,33.748,66.935,33.748,67.624c0,5.119-0.859,10.139-2.556,14.923c-1.431,4.035,0.551,8.634,4.472,10.359
			c4.359,1.918,9.574-0.335,11.163-4.819c2.328-6.568,3.508-13.452,3.508-20.463C317.374,275.96,313.814,255.304,280.85,205.731z"/>
	</g>
</g>
</svg>