<?xml version="1.0" encoding="iso-8859-1"?>
<!-- Uploaded to: SVG Repo, www.svgrepo.com, Generator: SVG Repo Mixer Tools -->
<svg height="800px" width="800px" version="1.1" id="Layer_1" xmlns="http://www.w3.org/2000/svg" xmlns:xlink="http://www.w3.org/1999/xlink" 
	 viewBox="0 0 508.4 508.4" xml:space="preserve">
<g>
	<circle style="fill:#324A5E;" cx="254.2" cy="254" r="254"/>
	<path style="fill:#324A5E;" d="M508.2,254c0,122.4-86.4,224.4-201.6,248.4c-16.8,3.6-34.4,5.6-52.4,5.6s-35.6-2-52.4-5.6
		C86.6,478.4,0.2,376.4,0.2,254c0-140.4,113.6-254,254-254S508.2,113.6,508.2,254z"/>
</g>
<path style="fill:#FFFFFF;" d="M312.2,259.6h-116c-5.2,0-9.2-4.4-9.2-9.2l0,0c0-5.2,4.4-9.2,9.2-9.2h116c5.2,0,9.2,4.4,9.2,9.2l0,0
	C321.4,255.2,317.4,259.6,312.2,259.6z"/>
<path style="fill:#E6E9EE;" d="M306.6,259.6v243.2c-16.8,3.6-34.4,5.6-52.4,5.6s-35.6-2-52.4-5.6V259.6H306.6z"/>
<path style="fill:#FFD05B;" d="M293.4,106.8c0.4,7.2-3.2,14.4-8,21.6c4-24.4-4-51.6-36.4-64c2.8,10.4-4,22.8-10,36.4
	c-3.6-4.4-8.4-8.8-13.6-12.4c2.4,34-72,68-11.6,126c0,0,4,2.8,11.2,5.2l-0.4-0.4l0,0c-12.8-14-20-43.2,4.4-62.4
	c-0.4,4.8,2,9.2,5.2,14c-2.4-15.6,2.8-33.6,23.6-41.6c-2,6.8,2.4,14.8,6.8,23.6c2.4-2.8,5.2-5.6,8.8-8
	c-1.2,18.4,32.4,36.8,20.4,64.8c2.4-1.6,4.8-4,6.8-6.4l0,0C320.2,180.8,331,136.4,293.4,106.8z"/>
<g>
	<path style="fill:#FFFFFF;" d="M312.2,426.4h-116c-5.2,0-9.2-4.4-9.2-9.2l0,0c0-5.2,4.4-9.2,9.2-9.2h116c5.2,0,9.2,4.4,9.2,9.2l0,0
		C321.4,422.4,317.4,426.4,312.2,426.4z"/>
	<path style="fill:#FFFFFF;" d="M312.2,343.2h-116c-5.2,0-9.2-4.4-9.2-9.2l0,0c0-5.2,4.4-9.2,9.2-9.2h116c5.2,0,9.2,4.4,9.2,9.2l0,0
		C321.4,338.8,317.4,343.2,312.2,343.2z"/>
</g>
</svg>